<?xml version="1.0" encoding="UTF-8" standalone="no"?>
<!DOCTYPE svg PUBLIC "-//W3C//DTD SVG 1.1//EN" "http://www.w3.org/Graphics/SVG/1.1/DTD/svg11.dtd">
<svg version="1.1" xmlns="http://www.w3.org/2000/svg" xmlns:xlink="http://www.w3.org/1999/xlink" preserveAspectRatio="xMidYMid meet" viewBox="0 0 300 300" width="300" height="300"><defs><path d="M204.94 96.93L220.84 108.35L206.07 128.46L207 129.58L209.32 132.59L211.52 135.68L213.6 138.85L215.56 142.11L217.39 145.45L219.1 148.87L220.67 152.36L222.11 155.92L223.41 159.54L224.57 163.23L225.59 166.98L226.45 170.79L227.17 174.65L227.74 178.57L228.14 182.53L228.39 186.54L228.47 190.58L228.39 194.63L228.14 198.64L227.74 202.6L227.17 206.51L226.45 210.37L225.59 214.18L224.57 217.93L223.41 221.62L222.11 225.25L220.67 228.81L219.1 232.3L217.39 235.71L215.56 239.05L213.6 242.31L211.52 245.49L209.32 248.58L207 251.58L204.58 254.49L202.04 257.31L199.4 260.02L196.65 262.64L193.81 265.15L190.87 267.55L187.83 269.84L184.71 272.01L181.5 274.07L178.2 276.01L174.83 277.82L171.37 279.51L167.85 281.07L164.25 282.49L160.58 283.78L156.85 284.93L153.06 285.93L149.21 286.79L145.31 287.5L141.35 288.06L137.35 288.46L133.3 288.7L129.21 288.78L125.12 288.7L121.07 288.46L117.06 288.06L113.11 287.5L109.2 286.79L105.35 285.93L101.56 284.93L97.83 283.78L94.17 282.49L90.57 281.07L87.04 279.51L83.59 277.82L80.22 276.01L76.92 274.07L73.71 272.01L70.58 269.84L67.55 267.55L64.61 265.15L61.76 262.64L59.02 260.02L56.38 257.31L53.84 254.49L51.41 251.58L49.1 248.58L46.9 245.49L44.82 242.31L42.86 239.05L41.02 235.71L39.32 232.3L37.75 228.81L36.31 225.25L35.01 221.62L33.85 217.93L32.83 214.18L31.96 210.37L31.24 206.51L30.68 202.6L30.27 198.64L30.03 194.63L29.94 190.58L30.03 186.54L30.27 182.53L30.68 178.57L31.24 174.65L31.96 170.79L32.83 166.98L33.85 163.23L35.01 159.54L36.31 155.92L37.75 152.36L39.32 148.87L41.02 145.45L42.86 142.11L44.82 138.85L46.9 135.68L49.1 132.59L51.41 129.58L53.84 126.67L56.38 123.86L59.02 121.14L61.76 118.53L64.61 116.02L67.55 113.62L70.58 111.33L73.71 109.15L76.92 107.09L80.22 105.16L83.59 103.34L87.04 101.66L90.57 100.1L94.17 98.67L97.83 97.39L101.56 96.24L105.35 95.24L109.2 94.38L113.11 93.67L117.06 93.11L121.07 92.71L125.12 92.46L129.21 92.38L133.3 92.46L137.35 92.71L141.35 93.11L145.31 93.67L149.21 94.38L153.06 95.24L156.85 96.24L160.58 97.39L162.36 98.01L177.59 77.27L199.41 92.96L219.05 65.6L224.62 69.51L204.94 96.93ZM74.87 122.45L74.15 122.57L73.42 122.73L72.67 122.93L71.91 123.19L71.14 123.48L70.36 123.82L69.57 124.21L68.77 124.63L67.96 125.1L67.14 125.61L66.31 126.16L65.48 126.75L64.65 127.38L63.81 128.04L62.97 128.75L62.13 129.49L61.29 130.26L60.44 131.07L59.6 131.92L58.77 132.8L57.93 133.71L57.1 134.65L56.28 135.63L55.46 136.64L54.65 137.67L53.85 138.74L53.05 139.84L52.27 140.96L51.5 142.11L50.74 143.29L50 144.49L49.26 145.72L48.55 146.96L47.87 148.2L47.22 149.44L46.6 150.67L46.01 151.9L45.45 153.13L44.92 154.35L44.41 155.57L43.94 156.77L43.5 157.96L43.09 159.15L42.71 160.32L42.35 161.48L42.03 162.62L41.75 163.74L41.49 164.85L41.26 165.95L41.07 167.02L40.9 168.07L40.77 169.1L40.67 170.1L40.6 171.08L40.56 172.04L40.56 172.97L40.59 173.87L40.65 174.74L40.74 175.58L40.87 176.39L41.03 177.16L41.22 177.91L41.44 178.61L41.7 179.28L41.99 179.92L42.32 180.51L42.67 181.07L43.07 181.58L43.49 182.05L43.95 182.48L44.45 182.86L44.98 183.19L45.53 183.48L46.12 183.71L46.72 183.89L47.34 184.02L47.99 184.1L48.65 184.13L49.34 184.11L50.04 184.05L50.75 183.93L51.48 183.77L52.23 183.56L52.99 183.31L53.76 183.01L54.54 182.67L55.33 182.29L56.14 181.86L56.95 181.4L57.76 180.89L58.59 180.34L59.42 179.75L60.25 179.12L61.09 178.45L61.93 177.75L62.77 177.01L63.62 176.24L64.46 175.43L65.3 174.58L66.14 173.7L66.97 172.79L67.8 171.84L68.62 170.87L69.44 169.86L70.25 168.82L71.06 167.76L71.85 166.66L72.63 165.54L73.4 164.39L74.16 163.21L74.91 162.01L75.64 160.78L76.35 159.54L77.03 158.3L77.68 157.06L78.3 155.83L78.89 154.59L79.45 153.37L79.99 152.15L80.49 150.93L80.96 149.73L81.4 148.53L81.82 147.35L82.2 146.18L82.55 145.02L82.87 143.88L83.16 142.75L83.41 141.64L83.64 140.55L83.84 139.48L84 138.43L84.13 137.4L84.23 136.4L84.3 135.42L84.34 134.46L84.34 133.53L84.31 132.63L84.25 131.76L84.16 130.92L84.04 130.11L83.88 129.33L83.69 128.59L83.46 127.88L83.2 127.21L82.91 126.58L82.59 125.99L82.23 125.43L81.84 124.92L81.41 124.45L80.95 124.02L80.45 123.64L79.93 123.31L79.37 123.02L78.79 122.79L78.18 122.61L77.56 122.48L76.91 122.4L76.25 122.37L75.57 122.38L74.87 122.45ZM273.59 28.03L260.06 41.75L263.25 61.13L246.52 51.98L229.79 61.13L232.98 41.75L219.45 28.03L238.15 25.2L246.52 7.57L254.89 25.2L273.59 28.03Z" id="cd4nzn8SM"></path></defs><g><g><g><use xlink:href="#cd4nzn8SM" opacity="1" fill="#060505" fill-opacity="1"></use><g><use xlink:href="#cd4nzn8SM" opacity="1" fill-opacity="0" stroke="#d639ac" stroke-width="1" stroke-opacity="1"></use></g></g></g></g></svg>