<?xml version="1.0" encoding="UTF-8" standalone="no"?>
<!DOCTYPE svg PUBLIC "-//W3C//DTD SVG 1.1//EN" "http://www.w3.org/Graphics/SVG/1.1/DTD/svg11.dtd">
<svg version="1.1" xmlns="http://www.w3.org/2000/svg" xmlns:xlink="http://www.w3.org/1999/xlink" preserveAspectRatio="xMidYMid meet" viewBox="0 0 300 300" width="300" height="300"><defs><path d="M199.5 137.03C199.5 142.45 194.91 146.85 189.25 146.85C183.6 146.85 179.01 142.45 179.01 137.03C179.01 131.61 183.6 127.21 189.25 127.21C194.91 127.21 199.5 131.61 199.5 137.03Z" id="aaVQ7fXy7"></path><path d="M66.76 45.85L101.43 45.85L101.43 243.84L66.76 243.84L66.76 45.85Z" id="g2biLLTsj"></path><path d="M66.76 19.2L236.68 19.2L236.68 47.85L66.76 47.85L66.76 19.2Z" id="a34IWktUIW"></path><path d="M206.68 47.85L236.53 47.85L236.53 243.85L206.68 243.85L206.68 47.85Z" id="e26XiJkcDC"></path><path d="M36.53 243.84L266.91 243.84L266.91 275.93L36.53 275.93L36.53 243.84Z" id="aF6745dCs"></path></defs><g><g><g><use xlink:href="#aaVQ7fXy7" opacity="1" fill="#65a8a6" fill-opacity="1"></use></g><g><use xlink:href="#g2biLLTsj" opacity="1" fill="#65a8a6" fill-opacity="1"></use></g><g><use xlink:href="#a34IWktUIW" opacity="1" fill="#65a8a6" fill-opacity="1"></use></g><g><use xlink:href="#e26XiJkcDC" opacity="1" fill="#65a8a6" fill-opacity="1"></use></g><g><use xlink:href="#aF6745dCs" opacity="1" fill="#65a8a6" fill-opacity="1"></use></g></g></g></svg>