<?xml version="1.0" encoding="UTF-8" standalone="no"?>
<!DOCTYPE svg PUBLIC "-//W3C//DTD SVG 1.1//EN" "http://www.w3.org/Graphics/SVG/1.1/DTD/svg11.dtd">
<svg version="1.1" xmlns="http://www.w3.org/2000/svg" xmlns:xlink="http://www.w3.org/1999/xlink" preserveAspectRatio="xMidYMid meet" viewBox="0 0 300 300" width="300" height="300"><defs><path d="M274.58 9.17C284.94 9.17 293.33 17.56 293.33 27.92C293.33 80.5 293.33 219.5 293.33 272.08C293.33 282.44 284.94 290.83 274.58 290.83C221 290.83 79 290.83 25.42 290.83C15.06 290.83 6.67 282.44 6.67 272.08C6.67 219.5 6.67 80.5 6.67 27.92C6.67 17.56 15.06 9.17 25.42 9.17C79 9.17 221 9.17 274.58 9.17Z" id="f51wzMpp"></path><path d="M251.67 150C251.67 205.19 206.11 250 150 250C93.89 250 48.33 205.19 48.33 150C48.33 94.81 93.89 50 150 50C206.11 50 251.67 94.81 251.67 150Z" id="a3RYRkPoKF"></path><path d="M207.5 150C207.5 178.98 181.74 202.5 150 202.5C118.26 202.5 92.5 178.98 92.5 150C92.5 121.02 118.26 97.5 150 97.5C181.74 97.5 207.5 121.02 207.5 150Z" id="f1eY9JziaO"></path><path d="M169.17 150C169.17 161.5 160.58 170.83 150 170.83C139.42 170.83 130.83 161.5 130.83 150C130.83 138.5 139.42 129.17 150 129.17C160.58 129.17 169.17 138.5 169.17 150Z" id="b2vdaUyWqA"></path></defs><g><g><g><g><use xlink:href="#f51wzMpp" opacity="1" fill="#65a8a6" fill-opacity="1"></use></g><g><use xlink:href="#a3RYRkPoKF" opacity="1" fill="#f8ecc2" fill-opacity="1"></use></g><g><use xlink:href="#f1eY9JziaO" opacity="1" fill="#65a8a6" fill-opacity="1"></use></g><g><use xlink:href="#b2vdaUyWqA" opacity="1" fill="#f8ecc2" fill-opacity="1"></use></g></g></g></g></svg>