<?xml version="1.0" encoding="UTF-8" standalone="no"?>
<!DOCTYPE svg PUBLIC "-//W3C//DTD SVG 1.1//EN" "http://www.w3.org/Graphics/SVG/1.1/DTD/svg11.dtd">
<svg version="1.1" xmlns="http://www.w3.org/2000/svg" xmlns:xlink="http://www.w3.org/1999/xlink" preserveAspectRatio="xMidYMid meet" viewBox="0 0 300 300" width="300" height="300"><defs><path d="M39.83 102.12C39.83 47.4 90.29 3.05 152.53 3.05C214.77 3.05 265.23 47.4 265.23 102.12C265.23 156.83 214.77 201.19 152.53 284.62C90.29 201.19 39.83 156.83 39.83 102.12Z" id="erwQjQXLy"></path><path d="M174.9 198.95C182.91 198.95 189.39 205.44 189.39 213.44C189.39 229.36 189.39 262.64 189.39 278.56C189.39 286.56 182.91 293.05 174.9 293.05C163.06 293.05 142 293.05 130.15 293.05C122.15 293.05 115.66 286.56 115.66 278.56C115.66 262.64 115.66 229.36 115.66 213.44C115.66 205.44 122.15 198.95 130.15 198.95C142 198.95 163.06 198.95 174.9 198.95Z" id="cLUeMHopD"></path><path d="M186.13 253.72L118.93 253.72" id="baDvQJonm"></path><path d="M186.13 274.79L118.93 274.79" id="cQwxpL4Me"></path><path d="M109.34 27.62L98.11 32.54L87.58 38.86L78.45 47.99L70.72 57.82L65.11 69.05L60.19 80.29L57.38 92.22L55.98 104.86" id="e1YKgdMle6"></path><path d="" id="a2jGH2CvHz"></path></defs><g><g><g><g><use xlink:href="#erwQjQXLy" opacity="1" fill="#65a8a6" fill-opacity="1"></use></g><g><use xlink:href="#cLUeMHopD" opacity="1" fill="#65a8a6" fill-opacity="1"></use></g><g><g><use xlink:href="#baDvQJonm" opacity="1" fill-opacity="0" stroke="#f8ecc2" stroke-width="8" stroke-opacity="1"></use></g></g><g><g><use xlink:href="#cQwxpL4Me" opacity="1" fill-opacity="0" stroke="#f8ecc2" stroke-width="8" stroke-opacity="1"></use></g></g><g><g><use xlink:href="#e1YKgdMle6" opacity="1" fill-opacity="0" stroke="#f8ecc2" stroke-width="8" stroke-opacity="1"></use></g></g></g><g><g><use xlink:href="#a2jGH2CvHz" opacity="1" fill-opacity="0" stroke="#f8ecc2" stroke-width="8" stroke-opacity="1"></use></g></g></g></g></svg>