<?xml version="1.0" encoding="UTF-8" standalone="no"?>
<!DOCTYPE svg PUBLIC "-//W3C//DTD SVG 1.1//EN" "http://www.w3.org/Graphics/SVG/1.1/DTD/svg11.dtd">
<svg version="1.1" xmlns="http://www.w3.org/2000/svg" xmlns:xlink="http://www.w3.org/1999/xlink" preserveAspectRatio="xMidYMid meet" viewBox="0 0 300 300" width="300" height="300"><defs><path d="M6.79 6.32L295.47 6.32L295.47 294.06L6.79 294.06L6.79 6.32Z" id="b1odnz8EdV"></path><path d="M26.6 30.85L133.96 30.85L133.96 82.74L26.6 82.74L26.6 30.85Z" id="e3x8UiVRBB"></path><path d="M166.11 30.85L273.47 30.85L273.47 82.74L166.11 82.74L166.11 30.85Z" id="cXwC1O8nl"></path><path d="M166.11 132.55C166.11 142.18 158.91 150 150.04 150C141.16 150 133.96 142.18 133.96 132.55C133.96 122.91 141.16 115.09 150.04 115.09C158.91 115.09 166.11 122.91 166.11 132.55Z" id="bYhvHhD3j"></path><path d="M35.09 137.45L70.94 137.45L70.94 285.57L35.09 285.57L35.09 137.45Z" id="f4Nde5Pqi"></path><path d="M102.92 159.15L138.77 159.15L138.77 285.57L102.92 285.57L102.92 159.15Z" id="aqyM4o9tD"></path><path d="M175.42 186.51L211.27 186.51L211.27 285.57L175.42 285.57L175.42 186.51Z" id="eBFfajDHd"></path><path d="M237.62 205.38L273.47 205.38L273.47 285.57L237.62 285.57L237.62 205.38Z" id="k1nRZaaA5B"></path></defs><g><g><g><use xlink:href="#b1odnz8EdV" opacity="1" fill="#65a8a6" fill-opacity="1"></use></g><g><use xlink:href="#e3x8UiVRBB" opacity="1" fill="#f8ecc2" fill-opacity="1"></use></g><g><use xlink:href="#cXwC1O8nl" opacity="1" fill="#f8ecc2" fill-opacity="1"></use></g><g><use xlink:href="#bYhvHhD3j" opacity="1" fill="#f8ecc2" fill-opacity="1"></use></g><g><use xlink:href="#f4Nde5Pqi" opacity="1" fill="#f8ecc2" fill-opacity="1"></use></g><g><use xlink:href="#aqyM4o9tD" opacity="1" fill="#f8ecc2" fill-opacity="1"></use></g><g><use xlink:href="#eBFfajDHd" opacity="1" fill="#f8ecc2" fill-opacity="1"></use></g><g><use xlink:href="#k1nRZaaA5B" opacity="1" fill="#f8ecc2" fill-opacity="1"></use></g></g></g></svg>