<?xml version="1.0" encoding="UTF-8" standalone="no"?>
<!DOCTYPE svg PUBLIC "-//W3C//DTD SVG 1.1//EN" "http://www.w3.org/Graphics/SVG/1.1/DTD/svg11.dtd">
<svg version="1.1" xmlns="http://www.w3.org/2000/svg" xmlns:xlink="http://www.w3.org/1999/xlink" preserveAspectRatio="xMidYMid meet" viewBox="0 0 300 300" width="300" height="300"><defs><path d="M239.35 144.4C239.35 186.55 199.9 220.77 151.29 220.77C102.69 220.77 63.23 186.55 63.23 144.4C63.23 102.24 102.69 68.02 151.29 68.02C199.9 68.02 239.35 102.24 239.35 144.4Z" id="f3dZAlhKSQ"></path><path d="M192.4 50.75C199.58 50.75 205.41 56.58 205.41 63.77C205.41 66.37 205.41 61.16 205.41 63.77C205.41 70.95 199.58 76.78 192.4 76.78C173.35 76.78 129.23 76.78 110.19 76.78C103 76.78 97.18 70.95 97.18 63.77C97.18 61.16 97.18 66.37 97.18 63.77C97.18 56.58 103 50.75 110.19 50.75C129.23 50.75 173.35 50.75 192.4 50.75Z" id="abojBbmWX"></path><path d="M183.89 97.16C190.65 97.16 196.12 102.64 196.12 109.39C196.12 117.52 196.12 129.65 196.12 137.77C196.12 144.52 190.65 150 183.89 150C180.58 150 182.85 150 179.54 150C172.78 150 167.3 144.52 167.3 137.77C167.3 129.65 167.3 117.52 167.3 109.39C167.3 102.64 172.78 97.16 179.54 97.16C182.85 97.16 180.58 97.16 183.89 97.16Z" id="dk0lcOUX"></path><path d="M192.4 207.75C199.58 207.75 205.41 213.58 205.41 220.77C205.41 223.37 205.41 218.17 205.41 220.77C205.41 227.96 199.58 233.78 192.4 233.78C173.35 233.78 129.23 233.78 110.19 233.78C103 233.78 97.18 227.96 97.18 220.77C97.18 218.17 97.18 223.37 97.18 220.77C97.18 213.58 103 207.75 110.19 207.75C129.23 207.75 173.35 207.75 192.4 207.75Z" id="axWIsp3B"></path><path d="M266.4 5.9C281.53 5.9 293.79 18.17 293.79 33.3C293.79 85.46 293.79 214.54 293.79 266.7C293.79 281.83 281.53 294.1 266.4 294.1C214.87 294.1 87.71 294.1 36.19 294.1C21.06 294.1 8.79 281.83 8.79 266.7C8.79 214.54 8.79 85.46 8.79 33.3C8.79 18.17 21.06 5.9 36.19 5.9C87.71 5.9 214.87 5.9 266.4 5.9Z" id="bs1ZpnJIZ"></path><clipPath id="clipc1qX1V6SJe"><use xlink:href="#bs1ZpnJIZ" opacity="1"></use></clipPath><path d="M167.3 173.79C167.3 182.5 159.41 189.57 149.69 189.57C139.97 189.57 132.08 182.5 132.08 173.79C132.08 165.08 139.97 158.01 149.69 158.01C159.41 158.01 167.3 165.08 167.3 173.79Z" id="h1076aHeXF"></path><path d="M132.08 173.79L167.3 173.79L167.3 193.23L132.08 193.23L132.08 173.79Z" id="b2qX2O9qO1"></path><path d="M119.85 97.16C126.6 97.16 132.08 102.64 132.08 109.39C132.08 117.52 132.08 129.65 132.08 137.77C132.08 144.52 126.6 150 119.85 150C116.53 150 118.81 150 115.49 150C108.74 150 103.26 144.52 103.26 137.77C103.26 129.65 103.26 117.52 103.26 109.39C103.26 102.64 108.74 97.16 115.49 97.16C118.81 97.16 116.53 97.16 119.85 97.16Z" id="hwOOoWNj"></path></defs><g><g><g><g><g><use xlink:href="#f3dZAlhKSQ" opacity="1" fill-opacity="0" stroke="#65a8a6" stroke-width="20" stroke-opacity="1"></use></g></g><g><use xlink:href="#abojBbmWX" opacity="1" fill="#65a8a6" fill-opacity="1"></use></g><g><use xlink:href="#dk0lcOUX" opacity="1" fill="#65a8a6" fill-opacity="1"></use></g><g><use xlink:href="#axWIsp3B" opacity="1" fill="#65a8a6" fill-opacity="1"></use></g><g><g clip-path="url(#clipc1qX1V6SJe)"><use xlink:href="#bs1ZpnJIZ" opacity="1" fill-opacity="0" stroke="#65a8a6" stroke-width="40" stroke-opacity="1"></use></g></g><g><use xlink:href="#h1076aHeXF" opacity="1" fill="#65a8a6" fill-opacity="1"></use></g><g><use xlink:href="#b2qX2O9qO1" opacity="1" fill="#65a8a6" fill-opacity="1"></use></g><g><use xlink:href="#hwOOoWNj" opacity="1" fill="#65a8a6" fill-opacity="1"></use></g></g></g></g></svg>