<?xml version="1.0" encoding="UTF-8" standalone="no"?>
<!DOCTYPE svg PUBLIC "-//W3C//DTD SVG 1.1//EN" "http://www.w3.org/Graphics/SVG/1.1/DTD/svg11.dtd">
<svg version="1.1" xmlns="http://www.w3.org/2000/svg" xmlns:xlink="http://www.w3.org/1999/xlink" preserveAspectRatio="xMidYMid meet" viewBox="0 0 300 300" width="300" height="300"><defs><path d="M159.56 78.81C166.53 78.81 172.17 84.46 172.17 91.42C172.17 118.01 172.17 185.17 172.17 211.76C172.17 218.73 166.53 224.37 159.56 224.37C157.04 224.37 162.09 224.37 159.56 224.37C152.6 224.37 146.96 218.73 146.96 211.76C146.96 185.17 146.96 118.01 146.96 91.42C146.96 84.46 152.6 78.81 159.56 78.81C162.09 78.81 157.04 78.81 159.56 78.81Z" id="f4rgt9tuji"></path><path d="M123.8 202.93L123.8 36.93" id="aaMWeyTje"></path><path d="" id="b19Pv9z4Rj"></path><path d="M187.3 240.68C187.3 256.49 174.2 269.33 158.07 269.33C141.94 269.33 128.85 256.49 128.85 240.68C128.85 224.87 141.94 212.03 158.07 212.03C174.2 212.03 187.3 224.87 187.3 240.68Z" id="dNmEXpPNO"></path><clipPath id="clipbh20CJwhM"><use xlink:href="#dNmEXpPNO" opacity="1"></use></clipPath><path d="M192.35 198.47L192.35 36.93" id="c1wOgnbUsA"></path><path d="M192.35 41.87L192.35 38.89L191.23 36.09L189.9 34.27L187.74 31.63L185.91 28.49L183.91 26.01L181.92 23.87L180.26 22.05L177.6 19.58L174.94 17.59L172.28 16.77L168.79 16.27L164.47 16.27L161.15 16.27L156.33 16.27L152.51 16.27L148.02 16.27L144.36 16.77L140.87 17.59L137.22 18.75L134.39 20.57L131.73 22.71L129.41 24.53L127.25 26.68L125.42 29.15L124.25 31.63L123.8 34.27L123.8 36.97" id="b3VrAnaSL2"></path><path d="M192.35 192.98L192.35 198.97L192.35 200.8L193.55 204.12L194.55 206.78L196.05 209.94L198.54 212.93L201.53 217.41L203.36 220.24L206.02 223.9L207.68 228.22L208.68 232.37L209.17 239.02L209.17 243.51L208.01 247.83L206.68 252.98L205.02 257.3L203.36 262.45L202.03 266.27L199.87 270.43L196.71 274.75L194.55 276.74L191.23 280.23L188.4 282.39L185.74 284.72L182.92 286.71L178.93 287.55L174.94 288.38L165.8 288.38L158.33 288.38L153.67 288.38L149.68 288.38L144.2 288.38L140.37 287.55L137.05 286.71L134.23 285.72L131.23 284.72L129.1 283.39L126.91 281.73L125.25 280.23L122.59 278.24L120.6 276.74L117.61 274.75L114.78 272.26L113.29 270.43L112.12 267.94L110.96 265.44L109.63 263.12L108.8 260.46L107.97 257.3L107.47 253.81L107.47 250.49L107.47 248.49L107.47 244.91L107.47 241.68L107.47 238.35L107.47 235.2L107.97 230.38L108.8 226.06L109.63 222.23L110.96 218.41L112.79 215.25L114.78 212.93L117.61 210.43L119.6 208.61L121.93 206.28L123.26 204.12L123.8 201.63L123.8 198.47" id="bcgJJwbIi"></path><path d="" id="a1AGeP5XDN"></path></defs><g><g><g><g><use xlink:href="#f4rgt9tuji" opacity="1" fill="#65a8a6" fill-opacity="1"></use></g><g><g><use xlink:href="#aaMWeyTje" opacity="1" fill-opacity="0" stroke="#65a8a6" stroke-width="19" stroke-opacity="1"></use></g></g><g><g><use xlink:href="#b19Pv9z4Rj" opacity="1" fill-opacity="0" stroke="#5dcb85" stroke-width="10" stroke-opacity="1"></use></g></g><g><g clip-path="url(#clipbh20CJwhM)"><use xlink:href="#dNmEXpPNO" opacity="1" fill-opacity="0" stroke="#65a8a6" stroke-width="28" stroke-opacity="1"></use></g></g><g><g><use xlink:href="#c1wOgnbUsA" opacity="1" fill-opacity="0" stroke="#65a8a6" stroke-width="19" stroke-opacity="1"></use></g></g><g><g><use xlink:href="#b3VrAnaSL2" opacity="1" fill-opacity="0" stroke="#65a8a6" stroke-width="19" stroke-opacity="1"></use></g></g><g><g><use xlink:href="#bcgJJwbIi" opacity="1" fill-opacity="0" stroke="#65a8a6" stroke-width="19" stroke-opacity="1"></use></g></g><g><g><use xlink:href="#a1AGeP5XDN" opacity="1" fill-opacity="0" stroke="#5dcb85" stroke-width="12" stroke-opacity="1"></use></g></g></g></g></g></svg>