<?xml version="1.0" encoding="UTF-8" standalone="no"?>
<!DOCTYPE svg PUBLIC "-//W3C//DTD SVG 1.1//EN" "http://www.w3.org/Graphics/SVG/1.1/DTD/svg11.dtd">
<svg version="1.1" xmlns="http://www.w3.org/2000/svg" xmlns:xlink="http://www.w3.org/1999/xlink" preserveAspectRatio="xMidYMid meet" viewBox="0 0 300 300" width="300" height="300"><defs><path d="M108.88 275.06C99.85 250.71 90.39 236.22 80.5 231.59C65.97 224.79 50.51 239.28 34.13 275.06" id="abkPEp4Jps"></path><path d="M181.54 275.06C159.24 214.93 134.33 214.93 106.79 275.06" id="a6XUDKFTro"></path><path d="M256.28 275.06C233.99 214.93 209.07 214.93 181.54 275.06" id="b59aPoVDT3"></path><path d="M96.11 131.8L120.51 131.8L120.51 265.61L96.11 265.61L96.11 131.8Z" id="c9yd97AV9"></path><path d="M235.55 288.16C213.26 228.03 188.34 228.03 160.8 288.16" id="h16IXuNa8"></path><path d="M88.14 288.16C65.85 228.03 40.94 228.03 13.4 288.16" id="b1kiU6ufWh"></path><path d="M160.8 288.16C138.51 228.03 113.59 228.03 86.05 288.16" id="bpdQoAuTx"></path><path d="M180.05 131.8L204.45 131.8L204.45 265.61L180.05 265.61L180.05 131.8Z" id="g22bFpRoX2"></path><path d="M287.68 288.16C265.39 228.03 240.47 228.03 212.94 288.16" id="d1q8JRTM2"></path><path d="M212.7 288.16C190.4 228.03 165.49 228.03 137.95 288.16" id="c3jItvKWOA"></path><path d="M137.95 288.16C115.65 228.03 90.74 228.03 63.2 288.16" id="eHr7nZSjZ"></path><path d="M224.61 124.51C224.61 161.85 191.61 192.16 150.97 192.16C110.32 192.16 77.32 161.85 77.32 124.51C77.32 87.17 110.32 56.86 150.97 56.86C191.61 56.86 224.61 87.17 224.61 124.51Z" id="a9TDPMnFG"></path><path d="M201.72 103.29C214.36 103.29 224.61 113.53 224.61 126.18C224.61 142.29 224.61 167.74 224.61 183.86C224.61 196.5 214.36 206.75 201.72 206.75C176.84 206.75 125.09 206.75 100.21 206.75C87.57 206.75 77.32 196.5 77.32 183.86C77.32 167.74 77.32 142.29 77.32 126.18C77.32 113.53 87.57 103.29 100.21 103.29C125.09 103.29 176.84 103.29 201.72 103.29Z" id="e1rh58ILul"></path><path d="M174.48 164.81C174.48 181.65 163.51 195.32 150 195.32C136.49 195.32 125.52 181.65 125.52 164.81C125.52 147.98 136.49 134.31 150 134.31C163.51 134.31 174.48 147.98 174.48 164.81Z" id="a53obmPiw8"></path><path d="M137.41 13.75L165.97 13.75L165.97 99.97L137.41 99.97L137.41 13.75Z" id="dOra6ndSv"></path></defs><g><g><g><g><g><use xlink:href="#abkPEp4Jps" opacity="1" fill="#65a8a6" fill-opacity="1"></use></g><g><use xlink:href="#a6XUDKFTro" opacity="1" fill="#65a8a6" fill-opacity="1"></use></g><g><use xlink:href="#b59aPoVDT3" opacity="1" fill="#65a8a6" fill-opacity="1"></use></g></g><g><use xlink:href="#c9yd97AV9" opacity="1" fill="#65a8a6" fill-opacity="1"></use></g><g><g><use xlink:href="#h16IXuNa8" opacity="1" fill="#65a8a6" fill-opacity="1"></use></g><g><use xlink:href="#b1kiU6ufWh" opacity="1" fill="#65a8a6" fill-opacity="1"></use></g><g><use xlink:href="#bpdQoAuTx" opacity="1" fill="#65a8a6" fill-opacity="1"></use></g></g><g><use xlink:href="#g22bFpRoX2" opacity="1" fill="#65a8a6" fill-opacity="1"></use></g><g><g><use xlink:href="#d1q8JRTM2" opacity="1" fill="#65a8a6" fill-opacity="1"></use></g><g><use xlink:href="#c3jItvKWOA" opacity="1" fill="#65a8a6" fill-opacity="1"></use></g><g><use xlink:href="#eHr7nZSjZ" opacity="1" fill="#65a8a6" fill-opacity="1"></use></g></g><g><use xlink:href="#a9TDPMnFG" opacity="1" fill="#65a8a6" fill-opacity="1"></use></g><g><use xlink:href="#e1rh58ILul" opacity="1" fill="#65a8a6" fill-opacity="1"></use></g><g><use xlink:href="#a53obmPiw8" opacity="1" fill="#f8ecc2" fill-opacity="1"></use></g><g><use xlink:href="#dOra6ndSv" opacity="1" fill="#65a8a6" fill-opacity="1"></use></g></g></g></g></svg>